# xmcd CD database file
#
# Track frame offsets:
#	150
#	12938
#	26680
#	40851
#	55134
#	68412
#	83307
#	97930
#	111349
#	126927
#	140144
#	153244
#	168368
#	181487
#	195682
#	209855
#	224946
#	239101
#	253773
#	267527
#	280015
#	292762
#	305787
#
# Disc length: 4260 seconds
#
# Revision: 0
# Processed by: cddbd v1.4PL0 Copyright (c) Steve Scherf et al.
# Submitted via: CDex 1.51
#
DISCID=6010a217
DTITLE=Roosevelt Sykes And Lee Green - The Way I Feel - The Best Of Roosevelt Sykes And Lee Green
DYEAR=1900
DGENRE=Blues
TTITLE0=Roosevelt's Blues
TTITLE1=The Way I Feel
TTITLE2="44" Blues
TTITLE3=Ten And Four Blues
TTITLE4=All My Money Gone Blues
TTITLE5=Lost All I Had Blues
TTITLE6=Henry Ford Blues
TTITLE7=Poor Boy Blues
TTITLE8=Train Number 44
TTITLE9=Death Alley Blues
TTITLE10=All My Money Gone
TTITLE11=Death Bell Blues
TTITLE12=Maltese Cat
TTITLE13=Memphis Fives
TTITLE14=Number 44 Blues
TTITLE15=The Way I Feel
TTITLE16=32 - 20 Blues
TTITLE17=Hard Luck Man Blues
TTITLE18=Give Me Your Change
TTITLE19=Kelly's Special
TTITLE20=No Settled Mind Blues
TTITLE21=Kelly's 44 Blues
TTITLE22=You So Dumb
EXTD=
EXTT0=
EXTT1=
EXTT2=
EXTT3=
EXTT4=
EXTT5=
EXTT6=
EXTT7=
EXTT8=
EXTT9=
EXTT10=
EXTT11=
EXTT12=
EXTT13=
EXTT14=
EXTT15=
EXTT16=
EXTT17=
EXTT18=
EXTT19=
EXTT20=
EXTT21=
EXTT22=
PLAYORDER=
